# xmcd
#
# Track frame offsets:
#	150
#	16670
#	35341
#	50771
#	62556
#	80409
#	100003
#	118602
#	135807
#	151444
#	168650
#	188851
#	203303
#	223405
#	242510
#
# Disc length: 3439 seconds
#
# Revision: 1
# Processed by: cddbd v1.5.2PL0 Copyright (c) Steve Scherf et al.
# Submitted via: audiograbber 1.83.01
#
DISCID=be0d6d0f
DTITLE=JonesTM - HC200713
DYEAR=2007
DGENRE=Top 40
TTITLE0=Clay Walker - Fall
TTITLE1=Heartland - Let's Get Dirty
TTITLE2=Van Zant - That Scares Me
TTITLE3=Darren Kozelsky - Cool Grass
TTITLE4=Kirk Franklin - September [Album Version]
TTITLE5=Musiq Soulchild - Teachme [Album Version]
TTITLE6=Spur Of The Moment - Steps To The Capital [Edit]
TTITLE7=Ray Parker, Jr. - Mismaloya Beach In Mexico [Remixed By Pretty Tone]
TTITLE8=Ray Parker, Jr. - Sunset Ray [Radio Edit]
TTITLE9=Ray Parker, Jr. - Mexico [Radio Edit]
TTITLE10=Keikon Matsui Feat. Paul Taylor - Black River [Album Version]
TTITLE11=Brian Bromberg - Cantaluope Island [Radio Edit]
TTITLE12=Kim Waters - Got To Give It Up [Album Version]
TTITLE13=Robin Thicke - Lost Without U [LP Version]
TTITLE14=Corinne Bailey Rae - Trouble Sleeping
EXTD=
EXTT0=
EXTT1=
EXTT2=
EXTT3=
EXTT4=
EXTT5=
EXTT6=
EXTT7=
EXTT8=
EXTT9=
EXTT10=
EXTT11=
EXTT12=
EXTT13=
EXTT14=
PLAYORDER=
